<?xml version="1.0" encoding="UTF-8"?>
<svg id="Layer_1" data-name="Layer 1" xmlns="http://www.w3.org/2000/svg" viewBox="0 0 534.34 708.66">
  <defs>
    <style>
      .cls-1 {
        stroke-width: 4px;
      }

      .cls-1, .cls-2 {
        fill: none;
        stroke: #000;
        stroke-miterlimit: 10;
      }

      .cls-3 {
        fill: #fab8a1;
      }

      .cls-4 {
        fill: #333;
      }

      .cls-5 {
        fill: #fee2cc;
      }

      .cls-6 {
        fill: #9faead;
      }

      .cls-2 {
        stroke-width: 5px;
      }

      .cls-7 {
        fill: #420f2a;
      }

      .cls-8 {
        fill: #006838;
      }

      .cls-9 {
        fill: #02362e;
      }

      .cls-10 {
        fill: #231f20;
      }

      .cls-11 {
        fill: #58595b;
      }

      .cls-12 {
        fill: #414042;
      }
    </style>
  </defs>
  <path class="cls-9" d="M413.36,528.76c-11.13,4.58-23.64,3.96-35.45,5.77-1.11,.17-2.22,.38-3.32,.58,16.7-.21,33.54,1.86,50.02,3.48-3.29-3.13-6.7-6.16-10.32-9.01-.37-.23-.67-.51-.93-.81Z"/>
  <path class="cls-3" d="M271.2,334.68c8.39-.69,14.59-8.48,20.3-13.9-11.01,7.08-24.9,7.65-37.16,3.68,3.9,5.6,9.79,10.23,16.86,10.22Z"/>
  <path class="cls-5" d="M433.61,281.15c-4.44,4.41-8.29,9.35-12.2,14.22-.13,.19-.3,.38-.45,.56-1.64,9.96-5.07,22.38-5.44,26.24-1.6,7.13-3.17,14.38-4.83,21.66,.93-.55,1.85-1.05,2.42-1.58,6.26-5.08,10.93-11.43,12.72-19.14,2.16-9.64-.62-19.37,7.57-26.93,2.57-3.09,15.76-17.59,17.89-9.28-.18,1.87-1.54,3.2-2.79,4.44-.43,.43-.86,.87-1.3,1.3,.35,15.62-4.15,32.37-16.89,42.31-1.39,1.18-2.85,2.51-4.4,3.77-1.91,2.86-4.54,5.51-8.27,7.95-2.31,1.18-5.83,4.39-8.38,3.22-.56,2.36-1.15,4.72-1.75,7.07,3.37,.45,6.89,.21,10-1.15,24.91-9.87,40.47-47.28,38.54-72.6-1.81-16.33-14.74-10.51-22.45-2.06Z"/>
  <path class="cls-10" d="M169.53,232.16c13.66-7.56,30.01-8.85,45.03-5.14-8.14-19.85-35.82-7.85-45.03,5.14Z"/>
  <path class="cls-5" d="M122.6,344.64c-4.43-2.06-8.55-5.28-11.67-9.22-15.06-6.92-21.05-26.85-20.92-42.48,.02-.47,.22-.81,.49-1.06-1.06-.86-2.15-1.67-3.25-2.43-.86-.64-1.94-2.04-.79-2.92,5.66-.6,11.75,4.54,15.77,8.23,13.11,10.58,1.46,18.5,9,30.25,3.67,5.53,8.02,10.14,12.86,14.53-1.88-7.72-3.72-15.88-5.59-24.59-.09-2.1-1.67-7.75-2.9-13.53-2.58-3.71-5.12-8.1-6.15-8.89-6.39-7.78-22.72-28.84-31.13-13.28-6.23,16.67,11.96,62.15,27.51,70.57,6.57,3.6,14.57,5.55,21.9,3.83-.86-3.16-1.72-6.39-2.55-9.74-.6,.69-1.53,1.09-2.56,.71Z"/>
  <path class="cls-3" d="M108.26,331.4c-2.16-3.93-3.34-8.33-2.97-12.92-.13-9.33-5.28-17.83-12.05-24.2-.77,13.34,3.44,29.86,15.03,37.12Z"/>
  <path class="cls-10" d="M367.19,232.16c-9.22-12.99-36.89-24.99-45.03-5.14,15.02-3.71,31.37-2.42,45.03,5.14Z"/>
  <path class="cls-5" d="M413.18,244.86c-15.97-11.51-28.17-28.58-28.87-48.79-.15-.96-.15-1.82-.06-2.61-31.02-24.16-20.36-72.69-44.03-70.13-1.55,.81-4.01,.07-5.8-2.62-20.17-5.37-42.46-2.53-59.86,9.2-5.99,9.28-10.97,19.29-17.52,28.19-13.04,19.87-33.56,33.75-56.66,39.08-2.27,.57-4.91,1.63-7.09,.27-.85-.53-1.42-1.62-1.22-2.61,.02-.1,.05-.19,.08-.29,0,0,0,0-.02,.01,3.05-4.45,5.77-9.1,8.37-13.83-1.95,1.9-3.85,3.69-5.65,5.33-12.56,11.19-27.52,19.18-42.62,26.39-4.73,2.17-9.46,4.42-14.38,6.15-5.28,11.48-12.79,22.1-20.07,32.27-.63,8.11,2.45,16.29,2.88,24.47,.77,6.56,.93,13.12,.91,19.67,3.8,16,6.73,32.19,11.16,48.03,18.62,80.18,48.09,98.17,127.34,106.06,2.51,.66,6.38,.06,9.3,.63,1.76-.66,3.98-.22,5.71-.3,11.05-.35,21.96-2.6,32.8-4.68,22.1-4.07,45.63-9.42,62.03-25.88,23.19-27.95,29.66-65.13,37.34-99.55,1.38-3.56,3.02-17.54,5.68-27.27-1.71-7.8,1.7-29.34,1.81-33.39,.03-4.13,2.57-11.35-1.58-13.82Zm-168.77,64.13c1.6-3.12,4.7-1.76,5.11,1.32,.81,11.19,13.78,13.81,22.98,12.32,9.15-1.24,15.99-6,23.82-9.49,1.87,.11,2.88,2.45,1.61,3.84-1.98,2.48-3.38,5.37-5.28,7.9-5.15,8.01-13.97,14.29-23.87,12.96-9.27-1.83-18.76-8.4-22.06-17.45-2.67-3.08-4.28-7.55-2.31-11.4Zm-80.51-69.81c-3.98-1.27-.44-6.35,.58-8.77,7.03-10.79,19.2-19.59,32.27-20.35,9.68-.25,21.02,4.93,23.1,15.19,.34,2.66,.23,6.38-2.69,7.51-6.63-.04-13.66-2.73-20.19-2.09-12.07-.28-22.53,3.99-33.08,8.52Zm25.81,57.77c-16.34-4.64-6.76-28.76,7.91-27.05,5.27,.22,7.56,5.78,7.99,10.35,1.45,8.91-6.48,18.78-15.9,16.7Zm155.93,0c-9.43,2.08-17.35-7.79-15.9-16.7,.43-4.57,2.72-10.12,7.99-10.35,14.67-1.71,24.26,22.41,7.91,27.05Zm25.81-57.77c-10.55-4.53-21.01-8.8-33.08-8.52-6.52-.63-13.56,2.05-20.19,2.09-2.92-1.13-3.03-4.85-2.69-7.51,2.08-10.25,13.43-15.44,23.1-15.19,13.07,.76,25.24,9.56,32.27,20.35,1.02,2.43,4.57,7.51,.58,8.77Z"/>
  <path class="cls-11" d="M476.52,187.43c-.36,9.67-2.6,19.61-8.08,27.85,.03-.68,.06-1.36,.1-2.01,.29-5.16-.75-10.23-2.4-15.06-.52-1.4-1.3-3.15-2.92-3.44-1.43-.23-2.11,1.49-2.3,2.6,.1,17.43-1.17,35.09-8.7,51.23-2.14,5.23-4.61,10.29-7.34,15.22-.19,.36-.26,.78-.29,1.17-8.05,1.69-16.33,8.86-22.2,16.59-.45,.58-.88,1.17-1.3,1.75-.19-.36-.42-.55-.71-.75,1.27-11.13,.68-26.46,.62-30.58-.32-4.32,1.75-10.52-2.79-13.47-13.08-9.77-23.08-23.54-25.13-39.9,7.21,3.77,16.1,6.46,27.3,7.53,1.79,.1,3.64,.03,5.42-.26,3.8-.23,3.7-6.17-.06-6.23-16.43-2.4-33.79-6.82-44.05-20.97-7.6-9.41-11.3-20.52-14.09-32.24-2.79-10.23-5.23-22.46-14.93-28.47-2.79-1.59-6.17-2.08-9.32-1.27-.52,.13-1.17,.39-1.79,.71-11.52-20.39-36.39-26.23-55.25-11.78-12.56,9.12-19.61,23.44-27.43,36.39-12.92,23.34-33.76,42.36-60.06,48.86,5.65-6.52,11.23-13.02,15.09-20.81,.91-2.43,4.06-5.88,3.86-8.64,5.39-7.99,9.19-16.56,8.99-25.06,.32-1.07-1.4-1.43-1.56-.39-6.23,7.99-10.19,17.63-16.88,25.52-10.19,13.44-23.7,25.06-38.47,33.6-8.54,4.9-17.3,9.32-26.13,13.67-.45,.29-1.01,.62-1.62,.91,1.59-4.87,2.76-9.87,3.25-15.09,.16-1.92,1.2-18.99-2.95-12.47-3.6,9.64-4.77,20.13-9.09,29.57-5.1,12.5-13.37,24.12-20.45,35.68,.29,12.08,1.72,25.39,3.47,38.34-.55,.13-.97,.42-1.3,.88-3.99-5.62-9.19-11.04-14.54-14.97-3.31-2.43-6.62-4.32-9.77-5.29,.06-.42,.03-.84-.19-1.3-2.82-6.17-5.71-12.3-7.53-18.86-5.19-16.52-4.87-33.57-2.76-50.74,0-1.17,1.1-10.42-1.46-7.53-4.48,6.49-6.69,14.38-7.34,22.76-.91-2.66-1.75-5.36-2.56-8.05-4.84-33.08,6.04-67.1,27.66-92.78C145.37,47.9,213.41,3.04,295.25,18.69c23.63,5.1,48.08,15.39,64.02,34.25,2.11,2.82,3.47,5.23,5.1,8.63,.39,.68,.75,1.43,1.14,2.11-1.01,1.53-1.04,4.09,1.2,4.32,5.71-1.07,10.71-4.9,16.46-6.23,8.76-2.69,18.63-2.82,27.56-.49,48.73,13.08,67.52,81.16,65.8,126.15Z"/>
  <path class="cls-3" d="M432,314.83c-.89,7.45-1.38,13.99-3.84,19.75,9.67-9.19,15.26-26.01,15.81-38.61-5.16,5.51-9.85,11.61-11.97,18.86Z"/>
  <path class="cls-9" d="M154.94,535.98c-4.03-.62-8.07-1.19-12.12-1.71-8.17-.89-16.51-2.43-23.72-6.37-.28,.44-.65,.86-1.17,1.22-6.63,5.54-12.78,11.52-18.5,17.86,16.03-5.08,32.55-8.66,49.27-10.41,2.06-.19,4.14-.4,6.22-.59Z"/>
  <path class="cls-6" d="M223.47,555.77c1.41-2.41,2.49-5.66,4.61-7.61-1.73-2.16-3.56-4.26-5.41-6.28-.82,1.25-1.89,2.49-2.32,3.62-8.37,14.19-13.75,29.17-16.49,45.21-1.89,12.47-8.13,44.9,.23,54.11,5.76,3.17,2.88-8.02,3.45-10.52-.21-10.01-.22-20.04,1.52-29.93,3.02-16.64,7.11-33.26,14.41-48.59Z"/>
  <path class="cls-4" d="M285.9,116.11c-2.02,2.06-3.83,4.27-5.57,6.53,14.93-8.84,34.64-13.29,50.76-6.72-12.98-13.51-30.85-14.12-45.19,.19Z"/>
  <path class="cls-8" d="M485.67,643.36c-10.62,5.65-21.43,10.94-32.4,15.91-42.1,19.28-87.88,29.61-134.13,32.33-61.78,4.09-124.3-.16-184.29-15.87-29.64-7.56-59.63-17.17-84.6-35.42,.62-1.04,1.04-2.21,1.2-3.25,1.72-6.3,3.6-12.56,5.84-18.7,8.96-24.28,21.59-47.27,38.31-66.97,6.85-2.63,13.76-5,20.87-6.75,16.07-3.9,32.72-6.56,49.38-6.78,5.65,1.04,11.23,2.24,16.82,3.73,9.77,2.43,19.09,5.78,28.11,10.29-2.47,5.19-4.45,10.16-5.13,11.75-5.52,13.93-21.75,85.54,.03,87.65,14.12-.26,7.14-17.85,7.99-26.72,.06-14.77,2.79-29.41,6.49-43.63,2.04-7.63,4.58-15.29,7.66-22.59,.23-1.2,1.88-3.99,2.92-6.56,.29,.45,.62,.84,.91,1.3,.42,.68,1.4,.91,2.11,.55,2.47-1.85-1.4-5.84-1.95-8.12-2.43-5.26-6.78-9.28-11.23-12.86-.88-.68-1.95-1.36-3.12-1.07-3.6,1.56-.29,4.77,1.69,6.56-1.53,1.46-3.25,4.03-4.93,7.01-9.09-7.08-34.99-12.14-42.88-14.25-24.57-6.17-58.17-.78-64.96-32.62-3.12-15.13,9.87-23.79,19.87-32.46,.88-.94,1.4-2.17,1.49-3.44,.29-5.65,.26-11.3,.91-16.91,1.79-15.32,8.51-29.83,18.89-41.23,4.97,8.28,10.65,15.35,17.37,21.39,7.69,7.01,16.78,12.66,27.66,17.2,.29,.58,.62,1.17,.88,1.75-1.2,2.47-2.14,5.03-3.44,7.43-.45,.94-.88,1.92-1.33,2.86-.84-.26-1.82-.19-2.6,.26-3.9,2.11-5.13,6.95-6.17,10.94-8.18,38.82,42.43,37.4,64.86,52.72,2.05,1.66,3.86,3.47,5.52,5.45,5.55,6.52,9.28,14.54,13.57,21.91,.03,1.2,.26,2.37,1.14,3.18,2.99,1.49,3.96-3.47,5.16-5.36,1.85-3.99,3.51-7.27,6.27-10.94,2.27-2.89,4.74-5.39,7.43-7.63h.03c17.08-14.25,41.55-16.72,60.35-28.27,7.3-4.87,13.54-11.59,17.46-19.48,1.01-4.09,8.38-16.52,2.6-18.47-1.53-.52-3.47,.19-4.16,1.75-.32,1.14-.71,2.27-1.07,3.41-.42-8.15-3.67-16.36-8.02-23.05,9.22-4.09,17.85-9.48,25.03-16.52,1.82-2.11,3.51-4.25,5.13-6.46,3.08-4.22,5.88-8.6,8.38-13.15,18.31,12.47,25.06,31.59,21.04,53.66-1.23,4.32,2.63,7.3,5.06,10.32,7.66,9.19,17.46,20.32,13.67,33.24-4.8,17.08-24.25,22.43-40.06,22.92-11.33,1.07-22.63,2.79-33.53,6.17-4.64,1.49-27.85,8.44-34.54,15.22-1.04-1.88-2.14-3.77-3.25-5.58-.62-.88-1.23-1.92-2.04-2.69,1.59-1.79,2.95-3.6,3.57-5.58,.03-.68-.42-1.43-1.1-1.62-7.11-.36-11.3,8.02-14.64,13.21-1.1,2.79-2.47,5.1-3.44,8.18-.19,.81,.32,1.69,1.04,2.05,.75,.36,1.75,.19,2.27-.45,.36-.52,.68-1.04,1.04-1.59,.13,.19,.26,.36,.39,.52,12.21,17.72,16.17,39.7,16.2,60.96,.06,5.84-.06,12.56-.52,18.63-.23,5.65-1.56,13.05,4.29,16.43,3.44,2.14,7.73,.42,10.36-2.24,13.05-15.26,4.25-47.88-.1-65.8-2.53-9.74-6.36-19.54-11.07-28.79,.58-.26,1.17-.55,1.69-.81,3.08-1.59,6.17-3.15,9.35-4.51,8.12-3.47,16.65-6.46,25.35-8.8,22.3-2.01,44.83,1.07,67.16,3.41,27.5,27.59,43.95,64.47,57.56,100.86,.06,.32,.23,.58,.36,.88Z"/>
  <path class="cls-6" d="M333.47,638.96c7.57-27.46-7.02-71.06-20.93-95.18-.27-.3-.51-.61-.72-.95-.98,1.08-1.87,2.18-2.54,3.33-.67,.79-1.24,1.64-1.83,2.48,2.95,1.63,5.33,7.19,6.88,9.41,8.49,16.82,11.78,35.76,12.53,54.46,.37,9.59,.12,19.22-.37,28.8,1.2,5.52,6.04,.79,6.99-2.36Z"/>
  <path class="cls-5" d="M200.59,492.42c18.49,10.57,44.64,9.7,57.69,28.8,3.19,4.38,6.17,9.13,7.78,14.34,3.54-8.38,10.78-15.11,18.32-20.12,14.97-11.37,34.58-13.78,50.87-22.3-.6-.46-1.09-1.09-1.25-1.88-2-8.53-4.81-24.87-2.87-37.26-19,18.74-42.7,37.43-70.56,36.75-16.78-1.63-33.55-7.9-45.71-19.88-3.26-3.51-7.06-6.69-10.62-10.06,.04,7.84-1.37,15.85-2.35,23.48-.69,1.92-.66,5.4-1.3,8.15Z"/>
  <path class="cls-9" d="M339.09,482.27c-.06,2.2,1.32,5.34,1.35,7.84,.88-.57,1.76-1.15,2.62-1.78,5.16-4.13,9.07-9.2,12.06-14.81,.39-1.46,.72-2.92,.9-4.41,.95-9.44-2.86-18.73-7.71-26.66-2.22,.92-4.47,1.77-6.75,2.55-.14,.43-.31,.86-.54,1.26-4.24,11.45-3.62,24.15-1.92,36.01Z"/>
  <path class="cls-9" d="M192.42,453.22c-.8,1.67-1.64,3.32-2.47,4.97-2.62,7.83-4.72,16.72-.79,24.57,1.59,2.04,3.4,3.76,5.3,5.35,.17-1.7,.31-3.37,.5-5.2,.91-10.98,3.09-22.79,.2-33.48-.15-.3-.28-.62-.43-.92-.8,1.55-1.62,3.11-2.31,4.71Z"/>
  <path class="cls-3" d="M229.26,478.24c31.08,17.77,67.71-.75,91.5-22.5,2.83-2.32,5.35-4.71,7.84-7.09-10.93,2.54-21.95,4.78-33,6.75-7.63,.91-15.94,3.12-23.6,1.92-.67,.4-1.42,.67-2.24,.63-27.94-2.1-50-5.7-67.75-11.58,.21,.61,.41,1.21,.59,1.83,2.94,4.68,5.38,9.72,8.73,14.13,4.96,6.32,11.18,11.61,17.93,15.91Z"/>
  <path class="cls-7" d="M127.44,361.7s.07-.02,.1-.03c-.02,0-.03,0-.05,.01-.02,0-.04,.01-.06,.02Z"/>
  <path class="cls-7" d="M127.69,361.62s-.1,.03-.15,.05c.07-.02,.14-.04,.21-.06,0,0-.02,0-.03,0,0,0,0,0,0,0,0,0-.02,0-.03,0Z"/>
  <path class="cls-12" d="M217.85,232.71c2.91-1.13,3.03-4.85,2.69-7.51-2.08-10.25-13.43-15.44-23.1-15.19-13.07,.76-25.24,9.56-32.27,20.35-1.03,2.42-4.57,7.51-.58,8.77,10.55-4.53,21.01-8.8,33.08-8.52,6.52-.63,13.56,2.05,20.19,2.09Zm-48.32-.55c9.21-12.99,36.89-24.99,45.03-5.14-15.02-3.71-31.37-2.42-45.03,5.14Z"/>
  <path class="cls-7" d="M198.31,269.86c-14.67-1.71-24.26,22.41-7.91,27.05,9.42,2.08,17.35-7.79,15.9-16.7-.43-4.57-2.72-10.12-7.99-10.35Z"/>
  <path class="cls-12" d="M318.86,232.71c6.63-.04,13.66-2.73,20.19-2.09,12.07-.28,22.53,3.99,33.08,8.52,3.98-1.27,.44-6.35-.58-8.77-7.03-10.79-19.2-19.59-32.27-20.35-9.68-.25-21.02,4.93-23.1,15.19-.34,2.66-.23,6.38,2.69,7.51Zm48.32-.55c-13.66-7.56-30.01-8.85-45.03-5.14,8.14-19.85,35.82-7.85,45.03,5.14Z"/>
  <path class="cls-7" d="M338.41,269.86c-5.27,.22-7.56,5.78-7.99,10.35-1.45,8.91,6.48,18.78,15.9,16.7,16.34-4.64,6.76-28.76-7.91-27.05Z"/>
  <path class="cls-7" d="M269.46,337.8c9.89,1.33,18.71-4.95,23.87-12.96,1.91-2.53,3.3-5.42,5.28-7.9,1.27-1.39,.26-3.73-1.61-3.84-7.83,3.49-14.67,8.26-23.82,9.49-9.2,1.49-22.18-1.13-22.98-12.32-.41-3.08-3.51-4.44-5.11-1.32-1.97,3.85-.36,8.32,2.31,11.4,3.3,9.05,12.79,15.61,22.06,17.45Zm22.04-17.02c-5.71,5.42-11.9,13.21-20.3,13.9-7.07,0-12.96-4.63-16.86-10.22,12.25,3.97,26.15,3.4,37.16-3.68Z"/>
  <path class="cls-10" d="M491.95,641.54c-.91-8.48-5.81-16.11-8.51-24.16-4.93-12.64-10.52-25.05-17.06-36.95-6.42-11.73-14.2-22.66-22.8-32.89-7.04-7.78-13.99-16.84-23.06-22.37,11.44-6.7,19.54-19.78,17.33-33.24-2.87-13.17-12.12-24.46-21.45-33.74,3.09-21.15,1.17-40.71-17.08-54.59-1.49-1.07-3.84-3.27-6.31-4.97,5.36-11.02,9.37-22.76,12.68-34.73,21.79,3.91,39.08-16,47.42-33.92,7.94-17.86,17.53-42.32,5.83-60.38-2.1-2.24-4.39-3.63-6.77-4.36,2.54-4.45,4.82-9.07,7-13.7,4.37-9.2,7.4-19.04,8.69-29.13,3.44-3.99,6.87-7.98,9.31-12.7,12.48-24.15,6.6-53.52,.52-78.79-10.8-37.19-37.12-79.53-80.45-79.13-8.7,.47-18.65,2.1-26.16,7.04-.55-2.13-1.46-4.2-2.17-5.37-11.24-18.78-32.3-29.32-52.12-36.91-60.39-20.66-128.99-3.37-176.73,37.78-35.52,30.88-73.84,67.89-79,117.14-.72,8.71-.82,17.73,.97,26.34,1.44,9.07,4.53,17.78,9.54,25.26,1.42,15.35,7.04,31.03,13.75,42.49-.48,.03-.95,.08-1.41,.18-31.51,7.76-5.72,61.52,5.16,78.75,6.93,10.87,19.45,17.65,32.29,17.94,2.15,.13,4.29-.1,6.33-.8,0,0,.02,0,.03,0,0,0,0,0,.01,0,.68-.2,1.38-.42,2.05-.7,4.13,14.05,8.64,26.19,14.04,36.63-5.79,3.5-12.37,16.78-14.34,20.38-6.74,12.92-5.62,27.6-7.61,41.52-7.91,5.94-16.38,12.34-20.73,21.49-6.5,14.61-.62,32.16,11.22,42.24-31.12,26.8-52.98,63.52-65.57,102.39-1.07,3.38-2.09,6.78-2.88,10.25-.16,.72-.32,1.6-.34,2.48-.52,.32-.94,.85-1.19,1.69,.02,4.61,5.14,7.2,8.32,9.89,48.47,33.19,142.28,49,200.97,50.46,82,3.29,167.12-7.91,238.36-51.09,1.96-1.31,1.82-3.5,.73-5,.76-.59,1.29-1.48,1.19-2.68Zm-67.32-102.96c-16.49-1.61-33.33-3.69-50.02-3.48,1.11-.19,2.22-.41,3.32-.58,11.81-1.81,24.32-1.19,35.45-5.77,.27,.3,.57,.58,.93,.81,3.62,2.85,7.02,5.89,10.32,9.01Zm31.44-255.37c1.93,25.32-13.62,62.73-38.54,72.6-3.11,1.36-6.63,1.6-10,1.15,.6-2.35,1.18-4.71,1.75-7.07,2.55,1.18,6.07-2.04,8.38-3.22,3.73-2.44,6.36-5.09,8.27-7.95,1.55-1.26,3.01-2.59,4.4-3.77,12.74-9.95,17.24-26.69,16.89-42.31,.43-.43,.86-.87,1.3-1.3,1.25-1.24,2.61-2.57,2.79-4.44-2.14-8.3-15.32,6.19-17.89,9.28-8.2,7.56-5.41,17.29-7.57,26.93-1.79,7.71-6.46,14.06-12.72,19.14-.57,.54-1.49,1.04-2.42,1.58,1.67-7.28,3.23-14.53,4.83-21.66,.37-3.86,3.8-16.28,5.44-26.24,.16-.19,.32-.37,.45-.56,3.91-4.87,7.76-9.8,12.2-14.22,7.7-8.45,20.64-14.26,22.45,2.06Zm-27.89,51.37c2.46-5.76,2.95-12.3,3.84-19.75,2.11-7.25,6.81-13.35,11.97-18.86-.54,12.6-6.14,29.42-15.81,38.61ZM82.98,246.18c-5.17-16.52-4.87-33.57-2.76-50.73,.02-1.17,1.11-10.41-1.46-7.53-4.46,6.49-6.69,14.36-7.32,22.75-.92-2.67-1.77-5.35-2.56-8.06-4.85-33.06,6.03-67.08,27.66-92.78C145.4,47.91,213.44,3.05,295.27,18.7c23.62,5.08,48.08,15.39,64.02,34.23,2.12,2.82,3.47,5.25,5.1,8.64,.37,.67,.73,1.42,1.14,2.12-1.03,1.51-1.04,4.09,1.18,4.3,5.71-1.07,10.72-4.89,16.46-6.21,8.75-2.71,18.63-2.82,27.55-.5,48.73,13.1,67.54,81.16,65.81,126.16-.37,9.66-2.6,19.6-8.09,27.84,.03-.67,.08-1.34,.1-2.02,.29-5.15-.75-10.21-2.41-15.07-.49-1.37-1.28-3.15-2.92-3.42-1.42-.24-2.09,1.5-2.3,2.59,.09,17.46-1.17,35.11-8.71,51.23-2.13,5.22-4.61,10.28-7.33,15.22-.18,.38-.26,.78-.3,1.19-8.66,1.81-17.55,9.95-23.49,18.32-.19-.33-.43-.55-.71-.72,1.24-11.15,.68-26.46,.61-30.58-.34-4.34,1.73-10.54-2.82-13.48-13.06-9.78-23.05-23.55-25.12-39.92,7.22,3.77,16.12,6.47,27.3,7.53,1.81,.11,3.65,.06,5.44-.24,3.79-.23,3.68-6.17-.07-6.25-16.44-2.38-33.78-6.8-44.06-20.96-7.57-9.41-11.27-20.53-14.08-32.24-2.79-10.23-5.23-22.48-14.92-28.46-2.8-1.62-6.17-2.1-9.31-1.28-.55,.13-1.18,.38-1.81,.7-11.52-20.38-36.39-26.23-55.23-11.77-12.56,9.12-19.6,23.43-27.44,36.4-12.9,23.31-33.76,42.35-60.05,48.84,5.65-6.52,11.24-13.01,15.11-20.82,.91-2.43,4.05-5.88,3.84-8.64,5.4-7.97,9.19-16.56,9-25.05,.32-1.08-1.39-1.45-1.57-.4-6.21,8-10.17,17.64-16.86,25.51-10.2,13.46-23.7,25.08-38.47,33.6-8.54,4.91-17.32,9.31-26.15,13.68-.43,.3-1,.59-1.63,.89,1.61-4.86,2.76-9.87,3.25-15.08,.16-1.94,1.22-19-2.94-12.48-3.6,9.66-4.76,20.13-9.08,29.58-5.09,12.5-13.38,24.1-20.45,35.66,.29,12.08,1.72,25.38,3.48,38.35-.55,.12-.99,.42-1.32,.88-6.45-9.07-16.06-17.65-24.3-20.25,.05-.42,.02-.85-.21-1.32-2.82-6.15-5.69-12.29-7.52-18.85ZM331.11,115.92c-16.12-6.57-35.84-2.12-50.76,6.72,1.74-2.26,3.55-4.47,5.57-6.53,14.35-14.31,32.21-13.7,45.19-.19ZM105.83,349.83c-15.56-8.42-33.74-53.9-27.51-70.57,8.42-15.57,24.75,5.5,31.13,13.28,1.03,.79,3.57,5.17,6.15,8.89,1.24,5.78,2.81,11.43,2.9,13.53,1.87,8.71,3.71,16.87,5.59,24.59-4.83-4.39-9.18-9.01-12.86-14.53-7.53-11.74,4.11-19.67-9-30.25-4.03-3.69-10.11-8.83-15.77-8.23-1.16,.88-.07,2.28,.79,2.92,1.1,.76,2.19,1.57,3.25,2.43-.27,.25-.46,.59-.49,1.06-.13,15.63,5.86,35.56,20.92,42.48,3.12,3.94,7.24,7.15,11.67,9.22,1.04,.38,1.96-.02,2.56-.71,.84,3.34,1.69,6.58,2.55,9.74-7.33,1.72-15.33-.23-21.9-3.83Zm2.44-18.43c-11.59-7.26-15.79-23.78-15.03-37.12,6.78,6.37,11.93,14.86,12.05,24.2-.36,4.59,.81,8.99,2.97,12.92Zm25.16,11.62c-4.43-15.84-7.36-32.03-11.16-48.03,.02-6.55-.14-13.11-.91-19.67-.43-8.18-3.51-16.36-2.88-24.47,7.27-10.17,14.79-20.79,20.07-32.27,4.91-1.73,9.65-3.98,14.38-6.15,15.1-7.21,30.06-15.2,42.62-26.39,1.8-1.64,3.7-3.43,5.65-5.33-2.59,4.73-5.31,9.38-8.37,13.83,0,0,0,0,.02-.01-.03,.1-.06,.19-.08,.29-.2,.99,.37,2.08,1.22,2.61,2.18,1.36,4.82,.31,7.09-.27,23.1-5.33,43.62-19.21,56.66-39.08,6.55-8.9,11.53-18.91,17.52-28.19,17.4-11.73,39.69-14.57,59.86-9.2,1.79,2.69,4.26,3.43,5.8,2.62,23.66-2.56,13.01,45.97,44.03,70.13-.09,.79-.09,1.65,.06,2.61,.7,20.21,12.91,37.28,28.87,48.79,4.16,2.47,1.61,9.68,1.58,13.82-.12,4.05-3.53,25.59-1.81,33.39-2.66,9.73-4.3,23.71-5.68,27.27-7.67,34.42-14.15,71.6-37.34,99.55-16.39,16.46-39.93,21.81-62.03,25.88-10.84,2.08-21.75,4.33-32.8,4.68-1.73,.08-3.95-.35-5.71,.3-2.92-.57-6.79,.03-9.3-.63-79.25-7.89-108.72-25.88-127.34-106.06Zm214.87,99.44c4.86,7.92,8.67,17.21,7.71,26.66-.18,1.49-.52,2.95-.9,4.41-2.99,5.61-6.9,10.69-12.06,14.81-.85,.63-1.74,1.2-2.62,1.78-.02-2.5-1.41-5.64-1.35-7.84-1.69-11.86-2.31-24.56,1.92-36.01,.23-.4,.41-.82,.54-1.26,2.27-.78,4.52-1.63,6.75-2.55Zm-144.06,18.33c3.56,3.37,7.36,6.55,10.62,10.06,12.16,11.98,28.93,18.26,45.71,19.88,27.86,.68,51.56-18.01,70.56-36.75-1.94,12.39,.87,28.72,2.87,37.26,.17,.79,.65,1.42,1.25,1.88-16.3,8.53-35.91,10.94-50.87,22.3-7.54,5-14.79,11.74-18.32,20.12-1.61-5.21-4.6-9.95-7.78-14.34-13.05-19.1-39.19-18.22-57.69-28.8,.64-2.75,.6-6.24,1.3-8.15,.98-7.63,2.38-15.63,2.35-23.48Zm-2.23-14.43c17.75,5.88,39.81,9.48,67.75,11.58,.82,.04,1.57-.23,2.24-.63,7.66,1.21,15.97-1,23.6-1.92,11.04-1.96,22.06-4.2,33-6.75-2.49,2.37-5,4.77-7.84,7.09-23.79,21.75-60.42,40.27-91.5,22.5-6.75-4.3-12.97-9.59-17.93-15.91-3.36-4.42-5.79-9.45-8.73-14.13-.18-.62-.38-1.22-.59-1.83Zm-7.05,36.53c-.19,1.83-.32,3.51-.5,5.2-1.9-1.59-3.7-3.31-5.3-5.35-3.93-7.85-1.83-16.74,.79-24.57,.83-1.66,1.67-3.31,2.47-4.97,.69-1.6,1.51-3.16,2.31-4.71,.14,.31,.27,.62,.43,.92,2.9,10.69,.71,22.49-.2,33.48Zm-77.02,46.22c.51-.37,.89-.79,1.17-1.22,7.21,3.94,15.55,5.49,23.72,6.37,4.04,.52,8.09,1.09,12.12,1.71-2.08,.2-4.16,.4-6.22,.59-16.73,1.75-33.24,5.33-49.27,10.41,5.72-6.34,11.86-12.33,18.5-17.86Zm335.36,130.14c-42.11,19.28-87.89,29.6-134.16,32.34-61.77,4.08-124.28-.15-184.29-15.88-29.63-7.55-59.61-17.18-84.59-35.41,.61-1.03,1.04-2.22,1.2-3.24,1.71-6.31,3.6-12.56,5.86-18.71,8.96-24.29,21.59-47.25,38.29-66.97,6.84-2.61,13.78-4.98,20.89-6.76,16.07-3.87,32.72-6.54,49.36-6.78,5.65,1.06,11.28,2.26,16.84,3.75,0,0-.02,0-.03,0,9.79,2.42,19.11,5.78,28.13,10.3-2.47,5.2-4.47,10.14-5.15,11.75-5.5,13.91-21.73,85.55,.04,87.66,14.12-.29,7.14-17.88,8.01-26.72,.06-14.77,2.79-29.41,6.49-43.65,2.05-7.62,4.57-15.27,7.64-22.58,.25-1.2,1.91-4,2.93-6.54,.29,.43,.62,.84,.89,1.28,.44,.7,1.4,.92,2.12,.55,2.47-1.82-1.37-5.84-1.94-8.1-2.43-5.25-6.78-9.29-11.22-12.85-.9-.7-1.95-1.38-3.15-1.08-3.6,1.55-.26,4.77,1.72,6.56-1.55,1.45-3.26,4-4.94,7-9.1-7.09-34.99-12.15-42.88-14.25-24.6-6.15-58.18-.78-64.96-32.63-3.11-15.12,9.88-23.8,19.86-32.46,.87-.95,1.42-2.16,1.51-3.45,.29-5.64,.27-11.28,.89-16.91,1.8-15.32,8.51-29.82,18.91-41.23,10.64,17.77,24.65,30.11,45.02,38.6,.31,.59,.62,1.18,.88,1.77-1.2,2.44-2.15,5.03-3.43,7.43-.47,.94-.89,1.9-1.35,2.85-.83-.27-1.81-.19-2.6,.25-3.89,2.11-5.1,6.96-6.14,10.96-8.19,38.81,42.41,37.37,64.85,52.71,8.84,7.07,13.49,17.76,19.09,27.37,.04,1.18,.27,2.37,1.15,3.17,2.97,1.51,3.94-3.48,5.14-5.36,1.87-3.97,3.5-7.26,6.29-10.94,16.68-21.31,46.05-22.53,67.8-35.88,7.29-4.88,13.55-11.61,17.46-19.48,1.01-4.08,8.38-16.54,2.62-18.46-1.55-.52-3.5,.19-4.17,1.74-.33,1.15-.69,2.28-1.08,3.4-.41-8.13-3.65-16.33-8-23.05,9.21-4.09,17.83-9.45,25.01-16.52,5.27-6.09,9.69-12.68,13.53-19.61,18.3,12.48,25.04,31.59,21.01,53.66-1.21,4.33,2.65,7.32,5.08,10.34,7.67,9.19,17.46,20.32,13.67,33.23-4.82,17.09-24.26,22.43-40.07,22.94-11.33,1.05-22.62,2.78-33.51,6.15-4.65,1.5-27.87,8.44-34.55,15.23-1.05-1.89-2.13-3.75-3.25-5.57-.63-.87-1.24-1.92-2.04-2.71,1.58-1.76,2.95-3.58,3.55-5.57,.04-.7-.41-1.42-1.09-1.62-7.1-.37-11.31,8.01-14.65,13.22-1.11,2.78-2.46,5.1-3.42,8.16-.2,.81,.31,1.7,1.03,2.05,.73,.35,1.74,.19,2.26-.46,.36-.52,.7-1.05,1.05-1.57,.13,.18,.26,.35,.4,.51,12.19,17.71,16.15,39.69,16.19,60.97,.07,5.84-.06,12.55-.52,18.63-.22,5.65-1.55,13.06,4.28,16.44,3.46,2.12,7.72,.41,10.35-2.26,13.07-15.23,4.28-47.88-.09-65.8-2.53-9.73-6.37-19.53-11.07-28.8,.6-.24,1.17-.53,1.68-.81,3.08-1.57,6.17-3.14,9.35-4.5,8.14-3.49,16.67-6.47,25.36-8.8,22.32-2.02,44.83,1.08,67.16,3.39,27.5,27.6,43.96,64.49,57.55,100.86,.07,.35,.22,.61,.37,.89-10.61,5.65-21.43,10.93-32.38,15.9Zm-245.75-24.97c-.57,2.5,2.31,13.7-3.45,10.52-8.36-9.21-2.12-41.64-.23-54.11,2.74-16.04,8.12-31.02,16.49-45.21,.43-1.13,1.5-2.37,2.32-3.62,1.85,2.03,3.68,4.12,5.41,6.28-2.12,1.94-3.2,5.2-4.61,7.61-7.29,15.33-11.38,31.96-14.41,48.59-1.74,9.89-1.73,19.92-1.52,29.93Zm119.3-21.79c-.74-18.7-4.04-37.65-12.53-54.46-1.55-2.22-3.93-7.78-6.88-9.41,.6-.84,1.17-1.69,1.83-2.48,.68-1.15,1.56-2.25,2.54-3.33,.21,.34,.45,.66,.72,.95,13.91,24.12,28.5,67.72,20.93,95.18-.95,3.15-5.79,7.88-6.99,2.36,.49-9.58,.74-19.22,.37-28.8Z"/>
  <path class="cls-7" d="M127.69,361.62s.02,0,.03,0c0,0,0,0,0,0,0,0,0,0-.01,0,0,0-.02,0-.03,0Z"/>
  <path class="cls-12" d="M456.26,181.45c-5.78-5.49-11.56-10.97-17.33-16.49,7.5,16.98,5.62,36.42,3.02,54.8-1.98,14.12-4.38,28.31-9.58,41.58-2.76,7.01-6.27,13.67-10,20.22-.45,.58-.88,1.17-1.3,1.75-.19-.36-.42-.55-.71-.75,1.27-11.13,.68-26.46,.62-30.58-.32-4.32,1.75-10.52-2.79-13.47-13.08-9.77-23.08-23.54-25.13-39.9,7.21,3.77,16.1,6.46,27.3,7.53,1.79,.1,3.64,.03,5.42-.26,3.8-.23,3.7-6.17-.06-6.23-16.43-2.4-33.79-6.82-44.05-20.97-7.6-9.41-11.3-20.52-14.09-32.24-2.79-10.23-5.23-22.46-14.93-28.47-2.79-1.59-6.17-2.08-9.32-1.27-.52,.13-1.17,.39-1.79,.71-11.52-20.39-36.39-26.23-55.25-11.78-12.56,9.12-19.61,23.44-27.43,36.39-12.92,23.34-33.76,42.36-60.06,48.86,5.65-6.52,11.23-13.02,15.09-20.81,.91-2.43,4.06-5.88,3.86-8.64,5.39-7.99,9.19-16.56,8.99-25.06,.32-1.07-1.4-1.43-1.56-.39-6.23,7.99-10.19,17.63-16.88,25.52-10.19,13.44-23.7,25.06-38.47,33.6-8.54,4.9-17.3,9.32-26.13,13.67-.45,.29-1.01,.62-1.62,.91,1.59-4.87,2.76-9.87,3.25-15.09,.16-1.92,1.2-18.99-2.95-12.47-3.6,9.64-4.77,20.13-9.09,29.57-5.1,12.5-13.37,24.12-20.45,35.68,.29,12.08,1.72,25.39,3.47,38.34-.55,.13-.97,.42-1.3,.88-3.99-5.62-9.19-11.04-14.54-14.97-2.92-17.33-4.03-35.03-2.24-52.49,2.34-22.4,9.61-44.51,22.85-62.72-8.83,8.05-17.66,16.1-26.49,24.12,2.34-14.84,8.93-28.37,16.88-41.1,21.98-35.16,52.07-65.93,89.11-84.47,37.07-18.57,81.38-24.09,120.63-10.84,6.36,2.18,12.63,4.8,18.08,8.7,9.19,6.52,15.68,16.17,21.43,25.87,15-6.69,31.1-1.27,45.32,6.95,32.88,19.09,53.24,57.88,50.22,95.8Z"/>
  <path class="cls-9" d="M250.29,524.26c-20.78-4.12-41.26-9.64-61.29-16.52-8.31-2.82-16.78-6.07-23.02-12.24-6.27-6.23-9.61-14.9-11.04-23.63-2.56-15.94,1.17-32.75,9.97-46.23,7.69,7.01,16.78,12.66,27.66,17.2,.29,.58,.62,1.17,.88,1.75-1.2,2.47-2.14,5.03-3.44,7.43-.45,.94-.88,1.92-1.33,2.86-.84-.26-1.82-.19-2.6,.26-3.9,2.11-5.13,6.95-6.17,10.94-8.18,38.82,42.43,37.4,64.86,52.72,2.05,1.66,3.86,3.47,5.52,5.45Z"/>
  <path class="cls-9" d="M394.32,458.26c-1.92,17.66-14.87,32.59-30.22,41.52-15.35,8.93-33.01,12.82-50.38,16.59-10.26,2.24-19.96,6.56-29.83,9.06,17.08-14.25,41.55-16.72,60.35-28.27,7.3-4.87,13.54-11.59,17.46-19.48,1.01-4.09,8.38-16.52,2.6-18.47-1.53-.52-3.47,.19-4.16,1.75-.32,1.14-.71,2.27-1.07,3.41-.42-8.15-3.67-16.36-8.02-23.05,9.22-4.09,17.85-9.48,25.03-16.52,1.82-2.11,3.51-4.25,5.13-6.46,8.83,11.72,14.67,25.61,13.11,39.93Z"/>
  <path class="cls-7" d="M237.1,396.77c23.83,1.05,48.06-3.92,70.29-12.37,6.03-2.8,13.44-5.72,19.52-9.07,.68-.42,1.15-1.02,1.51-1.68,1.86,.94,3.39,1.8,4.16,2.54,2.06,.76,4.18-1.35,3.47-3.5-.42-1.24-1.54-1.88-2.28-2.91-4.13-4.82-10.73-12.19-17.83-9.99-3.96,3.12-1.4,6.1,2.81,8.76-3.8,2.45-7.75,4.7-11.8,6.69-12.39,6.65-25.46,10.05-39.34,12.73-14.84,1.25-29.41,2.1-44.39,.03-5.34-4.04-11.48,1.21-6.27,5.96,6.33,2.29,13.43,2.37,20.15,2.79Z"/>
  <g>
    <rect class="cls-2" x="292.67" y="246.26" width="99.08" height="68.39" rx="18.15" ry="18.15"/>
    <rect class="cls-2" x="144.22" y="247.6" width="99.08" height="68.39" rx="18.15" ry="18.15"/>
    <rect class="cls-1" x="244.16" y="266.76" width="47.65" height="0"/>
  </g>
</svg>